# xmcd
#
# Track frame offsets:
# 150
# 13362
# 26557
# 39510
# 51241
# 62910
# 84254
# 100081
# 115802
# 127876
# 144974
# 156518
# 170404
# 184182
#
# Disc length: 2615 seconds
#
#
# Revision: 0
# Processed by: cddbd v1.5.2PL0 Copyright (c) Steve Scherf et al.
# Submitted via: FreeRIP 2.945 
#
DISCID=b80a350e
DTITLE=Richard Clayderman - Classic
DYEAR=2008
DGENRE=Classical
TTITLE0=Exodus
TTITLE1=Chariots of Fire (From Chariots of Fire)
TTITLE2=Four Seasons: Spring
TTITLE3=Ballade Pous Adeline
TTITLE4=La Vie en Rose
TTITLE5=The Phantom of teh Opera
TTITLE6=Do You Know Where You're Going To (Theme from Mahogany)
TTITLE7=Bésame Mucho
TTITLE8=Perhaps Love
TTITLE9=My Way (Comme D'Habitude)
TTITLE10=Smoke Gets in Your Eyes
TTITLE11=Unchained Melody
TTITLE12=Memory
TTITLE13=Ave-Maria
EXTD=O cd Classic reúne os clássicos do pianista francês Richard Clayderman, famoso por seu estilo romântico, sendo inclusive apelidado de "O Prícipe do Romance" após um concerto em Nova York em 1987, pela então primeira dama Nancy Reagan. Clayderman já
EXTD=vendeu mais de 65 milhões de discos ao longo de sua carreira, faz entre 150 e 200 concertos por ano e é sucesso em todas as partes do mundo, principalmente no Brasil, onde se apresentou em 2002. Confira nessa coletânea grandes sucessos com: "Bésame
EXTD=Mucho"...
EXTT0=
EXTT1=
EXTT2=
EXTT3=
EXTT4=
EXTT5=
EXTT6=
EXTT7=
EXTT8=
EXTT9=
EXTT10=
EXTT11=
EXTT12=
EXTT13=
PLAYORDER=
